Go Bucks!!!!!!!!!!!!!!!!!!!!!!!!  								

												

												

												

												

											

Beat The Team Up North!!!!!!!!!!!!!								

								                           

                                                                                           

                   										

Enjoy and please share.										

												

												

TTLTTLTTLTTLTTLTTLTTLTTLTTLTTLTTLTTLTTLTTLTTL							

												

												

												

Game_Time_With_Urban_Meyer_720p.HDTV.x264_2012-11-24_TTL.mkv
Format                           : Matroska
File size                        : 937 MiB
Duration                         : 39mn 55s
Overall bit rate                 : 3 281 Kbps
Writing application              : HandBrake 0.9.5
Writing library                  : libmkv 0.6.4.1

Video
ID                               : 1
Format                           : AVC
Format/Info                      : Advanced Video Codec
Format profile                   : High@L3.1
Format settings, CABAC           : Yes
Format settings, ReFrames        : 4 frames
Muxing mode                      : Container profile=Unknown@3.1
Codec ID                         : V_MPEG4/ISO/AVC
Duration                         : 39mn 52s
Bit rate                         : 2 991 Kbps
Nominal bit rate                 : 3 053 Kbps
Width                            : 1 280 pixels
Height                           : 720 pixels
Display aspect ratio             : 16:9
Frame rate mode                  : Variable
Frame rate                       : 29.970 fps
Resolution                       : 8 bits
Colorimetry                      : 4:2:0
Scan type                        : Progressive
Bits/(Pixel*Frame)               : 0.108
Stream size                      : 853 MiB (91%)
Writing library                  : x264 core 112

Audio                            : English
ID                               : 2
Format                           : AC-3
Format/Info                      : Audio Coding 3
Codec ID                         : A_AC3
Duration                         : 39mn 55s
Bit rate mode                    : Constant
Bit rate                         : 224 Kbps
Channel(s)                       : 2 channels
Channel positions                : L R
Sampling rate                    : 48.0 KHz
Stream size                      : 64.0 MiB (7%)

